<?xml version="1.0" encoding="UTF-8"?>
<svg width="670px" height="375px" viewBox="0 0 670 375" version="1.1" xmlns="http://www.w3.org/2000/svg" xmlns:xlink="http://www.w3.org/1999/xlink">
    <title>AA209D3B-9BC4-40AA-90C1-5CACBBB45754</title>
    <g id="Page-6" stroke="none" stroke-width="1" fill="none" fill-rule="evenodd" opacity="0.2">
        <g id="fondo" transform="translate(-276.000000, -259.000000)" fill="#FFFFFF">
            <g id="Group-5" transform="translate(276.000000, 259.000000)">
                <g id="Group-2">
                    <path d="M326.235524,0 C336.834048,0 345.425849,8.55136128 345.425849,19.1 C345.425849,29.6486387 336.834048,38.2 326.235524,38.2 L501.689923,38.2 C512.288447,38.2 520.880248,46.7513613 520.880248,57.3 C520.880248,67.8486387 512.288447,76.4 501.689923,76.4 L562.002373,76.4 C572.600897,76.4 581.192698,84.9513613 581.192698,95.5 C581.192698,106.048639 572.600897,114.6 562.002373,114.6 L509.914348,114.6 C499.315824,114.6 490.724023,123.151361 490.724023,133.7 C490.724023,144.248639 499.315824,152.8 509.914348,152.8 L526.363198,152.8 C536.961722,152.8 545.553523,161.351361 545.553523,171.9 C545.553523,182.448639 536.961722,191 526.363198,191 L126.10785,191 C115.509326,191 106.917525,182.448639 106.917525,171.9 C106.917525,161.351361 115.509326,152.8 126.10785,152.8 L19.1903249,152.8 C8.59180113,152.8 0,144.248639 0,133.7 C0,123.151361 8.59180113,114.6 19.1903249,114.6 L128.849325,114.6 C139.447848,114.6 148.039649,106.048639 148.039649,95.5 C148.039649,84.9513613 139.447848,76.4 128.849325,76.4 L60.3124498,76.4 C49.713926,76.4 41.1221248,67.8486387 41.1221248,57.3 C41.1221248,46.7513613 49.713926,38.2 60.3124498,38.2 L169.971449,38.2 C159.372926,38.2 150.781124,29.6486387 150.781124,19.1 C150.781124,8.55136128 159.372926,0 169.971449,0 L326.235524,0 Z M573.087221,153.278997 C583.53246,153.278997 592,161.723131 592,172.139498 C592,182.555866 583.53246,191 573.087221,191 C562.641982,191 554.174442,182.555866 554.174442,172.139498 C554.174442,161.723131 562.641982,153.278997 573.087221,153.278997 Z" id="BG" transform="translate(296.000000, 95.500000) scale(-1, 1) translate(-296.000000, -95.500000) "></path>
                    <path d="M414.67006,191 C424.860365,191 433.12124,199.237961 433.12124,209.4 C433.12124,219.562039 424.860365,227.8 414.67006,227.8 L583.366563,227.8 C593.556868,227.8 601.817743,236.037961 601.817743,246.2 C601.817743,256.362039 593.556868,264.6 583.366563,264.6 L641.355985,264.6 C651.546291,264.6 659.807165,272.837961 659.807165,283 C659.807165,293.162039 651.546291,301.4 641.355985,301.4 L591.274211,301.4 C581.083906,301.4 572.823031,309.637961 572.823031,319.8 C572.823031,329.962039 581.083906,338.2 591.274211,338.2 L607.089508,338.2 C617.279814,338.2 625.540688,346.437961 625.540688,356.6 C625.540688,366.762039 617.279814,375 607.089508,375 L222.250611,375 C212.060306,375 203.799431,366.762039 203.799431,356.6 C203.799431,346.437961 212.060306,338.2 222.250611,338.2 L119.45118,338.2 C109.260875,338.2 101,329.962039 101,319.8 C101,309.637961 109.260875,301.4 119.45118,301.4 L224.886494,301.4 C235.0768,301.4 243.337674,293.162039 243.337674,283 C243.337674,272.837961 235.0768,264.6 224.886494,264.6 L158.989423,264.6 C148.799118,264.6 140.538243,256.362039 140.538243,246.2 C140.538243,236.037961 148.799118,227.8 158.989423,227.8 L264.424737,227.8 C254.234432,227.8 245.973557,219.562039 245.973557,209.4 C245.973557,199.237961 254.234432,191 264.424737,191 L414.67006,191 Z M651.712856,338.439739 C661.812567,338.439739 670,346.624033 670,356.71987 C670,366.815707 661.812567,375 651.712856,375 C641.613145,375 633.425711,366.815707 633.425711,356.71987 C633.425711,346.624033 641.613145,338.439739 651.712856,338.439739 Z" id="BG-Copy-5" transform="translate(385.500000, 283.000000) scale(1, -1) translate(-385.500000, -283.000000) "></path>
                </g>
            </g>
        </g>
    </g>
</svg>