<svg xmlns="http://www.w3.org/2000/svg" width="68" height="68" viewBox="0 0 68 68">
    <g fill="#74C174" fill-rule="evenodd">
        <circle cx="34" cy="34" r="34" fill-opacity=".2"/>
        <g>
            <path d="M18.587 26.803l-1.355.74c-1.149.627-2.536.627-3.685 0l-1.356-.74h6.396zM16.8 0c.323 0 .634.128.862.357l8.528 8.528c.229.228.357.539.357.862v12.715l-2.438 1.329.001-12.826h-4.873c-2.019 0-3.655-1.636-3.655-3.655V2.437h-7.31c-.673 0-1.218.545-1.218 1.218v20.346l-2.438-1.329V3.655C4.617 1.636 6.254 0 8.273 0H16.8zm2.437 18.922c.672 0 1.218.546 1.218 1.219 0 .672-.546 1.218-1.218 1.218h-7.31c-.673 0-1.218-.546-1.218-1.218 0-.673.545-1.219 1.218-1.219h7.31zm-3.655-4.873c.672 0 1.218.546 1.218 1.218 0 .673-.546 1.219-1.218 1.219h-3.655c-.673 0-1.218-.546-1.218-1.219 0-.672.545-1.218 1.218-1.218h3.655zm2.437-9.89V7.31c0 .673.545 1.218 1.218 1.218h3.15L18.02 4.16z" transform="translate(18.895 17.105)"/>
            <path d="M4.616 16.114v2.921l-.015.008c-.05.028-.045.06.016.098v.288l.255.15c-.223.086-.285.156-.187.21l10.09 5.503c.382.21.845.21 1.229 0l6.87-3.747h.018l.309-.178 3.37-1.84c.02-.01-.023-.023-.128-.037l.104-.06-.001-3.107 3.565 1.944c.411.224.668.657.668 1.126v12.825c0 2.125-1.722 3.847-3.847 3.847H3.847C1.722 36.065 0 34.343 0 32.218V19.393c0-.47.256-.902.668-1.126l3.948-2.153zm23.598 5.44l-10.982 5.989c-1.149.627-2.536.627-3.685 0l-10.982-5.99v10.665c0 .707.574 1.282 1.282 1.282h23.085c.707 0 1.282-.575 1.282-1.282V21.554z" transform="translate(18.895 17.105)"/>
        </g>
    </g>
</svg>
