<svg xmlns="http://www.w3.org/2000/svg" width="68" height="68" viewBox="0 0 68 68">
    <g fill="none" fill-rule="evenodd">
        <circle cx="34" cy="34" r="34" fill="#FE8E7B" fill-opacity=".2"/>
        <path fill="#F77A65" d="M25.724 20.728c-.782 0-1.417.635-1.417 1.417v25.5c0 .782.635 1.416 1.417 1.416h17c.782 0 1.416-.634 1.416-1.416v-17h-5.666c-2.348 0-4.25-1.903-4.25-4.25v-5.667h-8.5zm11.333 2.003l5.08 5.08h-3.663c-.782 0-1.417-.634-1.417-1.416V22.73zm-15.583-.586c0-2.348 1.902-4.25 4.25-4.25h9.916c.376 0 .737.148 1.002.415l9.917 9.916c.266.265.415.627.415 1.002v18.417c0 2.347-1.903 4.25-4.25 4.25h-17c-2.348 0-4.25-1.903-4.25-4.25v-25.5z"/>
        <g fill="#F77A65" transform="translate(26.842 37.579)">
            <circle cx="1.789" cy="1.789" r="1.789"/>
            <circle cx="7.158" cy="1.789" r="1.789"/>
            <circle cx="12.526" cy="1.789" r="1.789"/>
        </g>
    </g>
</svg>
