<svg xmlns="http://www.w3.org/2000/svg" width="68" height="68" viewBox="0 0 68 68">
    <g fill="none" fill-rule="evenodd">
        <circle cx="34" cy="34" r="34" fill="#56CCD4" fill-opacity=".2"/>
        <g stroke="#56CCD4" stroke-width="2.25">
            <g transform="translate(13 21) translate(17.813)">
                <path d="M11.77 13.36c5.552 0 10.245 3.752 11.768 8.904-3.158 2.777-7.27 4.455-11.769 4.455-4.498 0-8.611-1.679-11.77-4.455 1.525-5.152 6.218-8.904 11.77-8.904z"/>
                <circle cx="11.769" cy="6.68" r="6.68"/>
            </g>
            <g transform="translate(13 21) translate(0 6.362)">
                <path d="M8.684 9.352c3.886 0 7.17 2.626 8.238 6.232-2.21 1.944-5.09 3.12-8.238 3.12-3.149 0-6.028-1.176-8.238-3.119 1.067-3.607 4.351-6.233 8.238-6.233z"/>
                <circle cx="8.684" cy="4.676" r="4.676"/>
            </g>
        </g>
    </g>
</svg>
