<svg xmlns="http://www.w3.org/2000/svg" width="218" height="140" viewBox="0 0 218 140">
    <g fill="none" fill-rule="evenodd">
        <path fill="#30DDD6" fill-opacity=".15" d="M119 30c3.866 0 7 3.134 7 7s-3.134 7-7 7h64c3.866 0 7 3.134 7 7s-3.134 7-7 7h22c3.866 0 7 3.134 7 7s-3.134 7-7 7h-19c-3.866 0-7 3.134-7 7s3.134 7 7 7h6c3.866 0 7 3.134 7 7s-3.134 7-7 7H46c-3.866 0-7-3.134-7-7s3.134-7 7-7H7c-3.866 0-7-3.134-7-7s3.134-7 7-7h40c3.866 0 7-3.134 7-7s-3.134-7-7-7H22c-3.866 0-7-3.134-7-7s3.134-7 7-7h40c-3.866 0-7-3.134-7-7s3.134-7 7-7h57zm90 56c3.866 0 7 3.134 7 7s-3.134 7-7 7-7-3.134-7-7 3.134-7 7-7z" transform="translate(1)"/>
        <path fill="#FFF" stroke="#30DDD6" stroke-linecap="round" stroke-width="2.5" d="M139.873 108.12c3.038-1.956 5.74-4.395 7.497-6.364m2.836-3.273h0c1.453-1.78 2.76-3.642 3.92-5.57 2.55-4.238 4.387-8.791 5.51-13.486 1.137-4.748 1.542-9.64 1.213-14.497-.287-4.238-1.132-8.449-2.539-12.513-1.395-4.032-3.342-7.92-5.843-11.546-1.49-2.16-3.176-4.229-5.06-6.18-2.766-2.863-5.8-5.312-9.022-7.343-3.464-2.183-7.146-3.884-10.95-5.102-4.764-1.525-9.72-2.292-14.676-2.298-3.856-.004-7.713.453-11.48 1.372-4.241 1.036-8.37 2.657-12.256 4.868-3.417 1.944-6.648 4.343-9.605 7.198-3.716 3.589-6.726 7.634-9.027 11.963-2.253 4.239-3.827 8.75-4.72 13.37-.918 4.762-1.113 9.64-.582 14.457.689 6.245 2.598 12.388 5.734 18.044 2.006 3.62 4.515 7.04 7.527 10.159 4.783 4.952 10.366 8.662 16.346 11.122 7.272 2.99 15.131 4.133 22.85 3.412 6.477-.605 12.856-2.522 18.705-5.76" transform="translate(1)"/>
        <g stroke="#30DDD6" stroke-linecap="round" stroke-linejoin="round" stroke-width="2.5">
            <path d="M10.5 0L10.5 6M10.5 14L10.5 20" transform="translate(1) translate(149 11)"/>
            <path d="M3.5 7L3.5 13" transform="translate(1) translate(149 11) rotate(-90 3.5 10)"/>
            <path d="M17.5 7L17.5 13" transform="translate(1) translate(149 11) rotate(-90 17.5 10)"/>
        </g>
        <g stroke="#30DDD6" stroke-linecap="round" stroke-linejoin="round" stroke-width="2.5">
            <path d="M8.5 0L8.5 4M8.5 12L8.5 16" transform="translate(1) translate(68 114)"/>
            <path d="M2.5 6L2.5 10" transform="translate(1) translate(68 114) rotate(-90 2.5 8)"/>
            <path d="M14.5 6L14.5 10" transform="translate(1) translate(68 114) rotate(-90 14.5 8)"/>
        </g>
        <path fill="#FFF" stroke="#30DDD6" stroke-linecap="round" stroke-width="2.5" d="M98.182 28.701c-2.038.765-4.03 1.694-5.954 2.789-2.99 1.7-5.816 3.8-8.404 6.298-1.06 1.024-2.055 2.09-2.984 3.195m-2.875 3.844c-.739 1.116-1.419 2.26-2.04 3.428-.458.863-.885 1.739-1.279 2.625" transform="translate(1)"/>
        <path fill="#30DDD6" fill-rule="nonzero" stroke="#30DDD6" stroke-width="2.5" d="M93.98 67.369c-1.456-1.312-3.715-1.212-5.045.224-1.33 1.437-1.229 3.664.228 4.976l16.808 15.14c2.039 1.837 5.201 1.696 7.064-.314.078-.086.078-.086.153-.173l23.987-28.449c1.26-1.495 1.053-3.716-.463-4.96-1.517-1.243-3.769-1.038-5.03.457l-22.551 26.746L93.98 67.37z" transform="translate(1)"/>
    </g>
</svg>
